<svg width="64" height="146" viewBox="0 0 64 146" fill="none" xmlns="http://www.w3.org/2000/svg">
    <path d="M57.4273 7.24245C49.6976 2.65099 40.8748 0.224322 31.8843 0.216997C22.8937 0.209672 14.0669 2.62196 6.32975 7.20082C3.77652 8.73801 1.89112 11.1752 1.04456 14.0327C0.197999 16.8902 0.451641 19.961 1.75552 22.6409L18.8219 57.3122C18.6397 57.484 18.8765 132.71 18.7854 132.902C19.3136 150.039 44.1755 150.114 44.7271 132.902V58.1969C44.8359 58.0679 44.9318 57.9285 45.0133 57.7806L62.2228 22.8101C63.5601 20.0927 63.8085 16.9671 62.9171 14.0727C62.0256 11.1783 60.0617 8.73652 57.4273 7.24245ZM39.5257 59.2299V67.5822H23.9893V59.2299C23.9893 59.2299 37.1059 59.2299 39.5257 59.2299ZM31.7562 140.698C29.6933 140.692 27.7171 139.867 26.261 138.406C24.805 136.944 23.988 134.965 23.9893 132.902V72.7862H39.5232V132.902C39.5246 134.965 38.7076 136.944 37.2515 138.406C35.7955 139.867 33.8192 140.692 31.7562 140.698ZM57.5522 20.5125L41.0584 54.026H39.5179L41.4824 48.7882C41.7246 48.1419 41.7002 47.4259 41.4145 46.7976C41.1288 46.1694 40.6053 45.6804 39.959 45.4381C39.3127 45.1959 38.5967 45.2203 37.9684 45.506C37.3402 45.7918 36.8512 46.3153 36.6089 46.9616L34.6315 52.2332V47.0527C34.6315 46.3626 34.3573 45.7007 33.8693 45.2128C33.3814 44.7248 32.7196 44.4507 32.0295 44.4507C31.3394 44.4507 30.6775 44.7248 30.1896 45.2128C29.7016 45.7007 29.4275 46.3626 29.4275 47.0527V52.4544L27.3719 46.9642C27.1297 46.3179 26.6407 45.7944 26.0124 45.5087C25.3842 45.2229 24.6682 45.1985 24.0219 45.4407C23.3756 45.683 22.852 46.172 22.5663 46.8002C22.2806 47.4285 22.2562 48.1445 22.4984 48.7908L24.4629 54.0312H23.0058L6.42604 20.3486C5.69295 18.8441 5.54939 17.1198 6.02371 15.5148C6.49802 13.9098 7.55585 12.5405 8.98899 11.6762C15.7624 7.66135 23.4744 5.50269 31.3479 5.41772C39.2213 5.33276 46.9781 7.32449 53.8366 11.1922C54.7141 11.5337 55.512 12.0522 56.1806 12.7153C56.8491 13.3785 57.3739 14.1722 57.7225 15.0469C58.071 15.9217 58.2358 16.8588 58.2065 17.8C58.1772 18.7412 57.9545 19.6663 57.5522 20.5177V20.5125Z" fill="#1BBDE3" fill-opacity="0.2"/>
    <path d="M57.4273 7.24245C49.6976 2.65099 40.8748 0.224322 31.8843 0.216997C22.8937 0.209672 14.0669 2.62196 6.32975 7.20082C3.77652 8.73801 1.89112 11.1752 1.04456 14.0327C0.197999 16.8902 0.451641 19.961 1.75552 22.6409L18.8219 57.3122C18.6397 57.484 18.8765 132.71 18.7854 132.902C19.3136 150.039 44.1755 150.114 44.7271 132.902V58.1969C44.8359 58.0679 44.9318 57.9285 45.0133 57.7806L62.2228 22.8101C63.5601 20.0927 63.8085 16.9671 62.9171 14.0727C62.0256 11.1783 60.0617 8.73652 57.4273 7.24245ZM39.5257 59.2299V67.5822H23.9893V59.2299C23.9893 59.2299 37.1059 59.2299 39.5257 59.2299ZM31.7562 140.698C29.6933 140.692 27.7171 139.867 26.261 138.406C24.805 136.944 23.988 134.965 23.9893 132.902V72.7862H39.5232V132.902C39.5246 134.965 38.7076 136.944 37.2515 138.406C35.7955 139.867 33.8192 140.692 31.7562 140.698ZM57.5522 20.5125L41.0584 54.026H39.5179L41.4824 48.7882C41.7246 48.1419 41.7002 47.4259 41.4145 46.7976C41.1288 46.1694 40.6053 45.6804 39.959 45.4381C39.3127 45.1959 38.5967 45.2203 37.9684 45.506C37.3402 45.7918 36.8512 46.3153 36.6089 46.9616L34.6315 52.2332V47.0527C34.6315 46.3626 34.3573 45.7007 33.8693 45.2128C33.3814 44.7248 32.7196 44.4507 32.0295 44.4507C31.3394 44.4507 30.6775 44.7248 30.1896 45.2128C29.7016 45.7007 29.4275 46.3626 29.4275 47.0527V52.4544L27.3719 46.9642C27.1297 46.3179 26.6407 45.7944 26.0124 45.5087C25.3842 45.2229 24.6682 45.1985 24.0219 45.4407C23.3756 45.683 22.852 46.172 22.5663 46.8002C22.2806 47.4285 22.2562 48.1445 22.4984 48.7908L24.4629 54.0312H23.0058L6.42604 20.3486C5.69295 18.8441 5.54939 17.1198 6.02371 15.5148C6.49802 13.9098 7.55585 12.5405 8.98899 11.6762C15.7624 7.66135 23.4744 5.50269 31.3479 5.41772C39.2213 5.33276 46.9781 7.32449 53.8366 11.1922C54.7141 11.5337 55.512 12.0522 56.1806 12.7153C56.8491 13.3785 57.3739 14.1722 57.7225 15.0469C58.071 15.9217 58.2358 16.8588 58.2065 17.8C58.1772 18.7412 57.9545 19.6663 57.5522 20.5177V20.5125Z" fill="#1BBDE3" fill-opacity="0.2"/>
    <path d="M23.3881 132.902C23.3866 135.124 24.2666 137.256 25.8351 138.83C27.4035 140.404 29.5322 141.292 31.7544 141.299L31.758 141.299C33.9802 141.292 36.109 140.404 37.6775 138.83C39.2459 137.256 40.1259 135.124 40.1245 132.902V72.7862V72.1849H39.5232H23.9893H23.3881V72.7862V132.902ZM23.3881 132.902L23.9893 132.902H23.3881V132.902ZM58.0754 20.77L58.0917 20.778L41.5978 54.2915L41.4326 54.6272H41.0584H39.5179H38.6503L38.955 53.8148L40.9194 48.5772C41.1056 48.0802 41.0869 47.5296 40.8672 47.0465C40.6475 46.5634 40.2449 46.1874 39.748 46.0012C39.251 45.8149 38.7004 45.8337 38.2173 46.0534C37.7342 46.2731 37.3582 46.6757 37.172 47.1726L37.1719 47.1728L35.1944 52.4444L34.0302 52.2332V47.0527C34.0302 46.5221 33.8194 46.0132 33.4442 45.638C33.069 45.2627 32.5601 45.052 32.0295 45.052C31.4988 45.052 30.9899 45.2628 30.6147 45.638C30.2396 46.0131 30.0288 46.522 30.0288 47.0527V52.4544L28.8644 52.6652L26.8089 47.1752C26.8089 47.1752 26.8088 47.1751 26.8088 47.175C26.6225 46.6782 26.2466 46.2756 25.7635 46.056C25.2805 45.8363 24.7299 45.8175 24.2329 46.0038C23.736 46.19 23.3334 46.5661 23.1137 47.0491C22.894 47.5322 22.8752 48.0828 23.0614 48.5797L58.0754 20.77ZM58.0754 20.77L58.0959 20.7746C58.5334 19.8486 58.7756 18.8424 58.8075 17.8187C58.8394 16.795 58.6601 15.7758 58.281 14.8244C57.9019 13.873 57.3311 13.0097 56.604 12.2885L56.1806 12.7153L56.604 12.2885C55.8872 11.5774 55.0337 11.0194 54.0952 10.6479C47.1537 6.74176 39.3065 4.73053 31.3414 4.81648C23.3623 4.90259 15.5468 7.09023 8.6824 11.159L8.68239 11.159L8.67847 11.1613C7.11673 12.1032 5.96397 13.5954 5.44709 15.3444C4.9302 17.0934 5.08664 18.9725 5.88552 20.612L5.88658 20.6141L22.4664 54.2967L22.6316 54.6324H23.0058H24.4629H25.3305L25.026 53.8201L23.0614 48.5798L58.0754 20.77ZM57.1202 7.7594L57.1202 7.75951L57.1307 7.76546C59.6319 9.18399 61.4962 11.502 62.3424 14.2496C63.1887 16.9975 62.9529 19.9648 61.6833 22.5446L62.2228 22.8101L61.6833 22.5446L44.4804 57.5018C44.4194 57.6107 44.3481 57.7136 44.2675 57.8092L44.1258 57.9771V58.1969V132.893C43.5913 149.284 19.9276 149.263 19.3876 132.921C19.3889 132.902 19.3897 132.879 19.3904 132.858C19.3919 132.814 19.3931 132.753 19.3942 132.678C19.3965 132.527 19.3985 132.308 19.4001 132.027C19.4034 131.464 19.4057 130.645 19.407 129.607C19.4095 127.53 19.4085 124.575 19.4052 121.034C19.4009 116.377 19.3928 110.706 19.3842 104.688C19.3797 101.554 19.3751 98.3265 19.3708 95.0986C19.3582 85.6726 19.3486 76.2478 19.3534 69.169C19.3558 65.6294 19.3619 62.6772 19.373 60.6049C19.3786 59.5684 19.3854 58.7538 19.3936 58.1962C19.3975 57.9323 19.4017 57.7289 19.4061 57.5877L19.5574 57.4451L19.3613 57.0467L2.2962 22.3779C2.296 22.3775 2.29579 22.377 2.29559 22.3766C1.05795 19.8321 0.817305 16.9165 1.62106 14.2035C2.42474 11.4907 4.21437 9.17689 6.63793 7.71711C14.2818 3.19396 23.0019 0.811034 31.8838 0.818271C40.7664 0.825508 49.4833 3.22305 57.1202 7.7594ZM40.127 59.2299V58.6286H39.5257H39.5114H39.4969H39.4821H39.4671H39.4518H39.4363H39.4205H39.4045H39.3883H39.3719H39.3552H39.3383H39.3211H39.3037H39.2861H39.2682H39.2502H39.2319H39.2133H39.1946H39.1756H39.1564H39.137H39.1174H39.0975H39.0774H39.0571H39.0366H39.0159H38.995H38.9738H38.9525H38.9309H38.9091H38.8871H38.8649H38.8425H38.8199H38.7971H38.7741H38.7508H38.7274H38.7038H38.68H38.656H38.6317H38.6073H38.5827H38.5579H38.5329H38.5077H38.4824H38.4568H38.431H38.4051H38.379H38.3527H38.3262H38.2995H38.2726H38.2456H38.2184H38.191H38.1634H38.1356H38.1077H38.0796H38.0513H38.0229H37.9942H37.9654H37.9365H37.9073H37.878H37.8486H37.819H37.7892H37.7592H37.7291H37.6988H37.6684H37.6378H37.607H37.5761H37.545H37.5138H37.4824H37.4509H37.4192H37.3874H37.3554H37.3233H37.291H37.2586H37.2261H37.1934H37.1605H37.1275H37.0944H37.0611H37.0277H36.9942H36.9605H36.9267H36.8927H36.8586H36.8244H36.7901H36.7556H36.721H36.6863H36.6514H36.6164H36.5813H36.5461H36.5107H36.4752H36.4396H36.4039H36.3681H36.3321H36.2961H36.2599H36.2236H36.1872H36.1507H36.114H36.0773H36.0404H36.0035H35.9664H35.9292H35.892H35.8546H35.8171H35.7795H35.7419H35.7041H35.6662H35.6282H35.5902H35.552H35.5137H35.4754H35.4369H35.3984H35.3598H35.3211H35.2823H35.2434H35.2044H35.1654H35.1262H35.087H35.0477H35.0083H34.9689H34.9293H34.8897H34.85H34.8103H34.7704H34.7305H34.6906H34.6505H34.6104H34.5702H34.5299H34.4896H34.4492H34.4088H34.3683H34.3277H34.2871H34.2464H34.2056H34.1648H34.124H34.083H34.0421H34.001H33.9599H33.9188H33.8776H33.8364H33.7951H33.7538H33.7124H33.671H33.6296H33.5881H33.5465H33.5049H33.4633H33.4216H33.3799H33.3382H33.2964H33.2546H33.2128H33.1709H33.129H33.0871H33.0451H33.0031H32.9611H32.9191H32.877H32.8349H32.7928H32.7507H32.7086H32.6664H32.6242H32.582H32.5398H32.4975H32.4553H32.413H32.3708H32.3285H32.2862H32.2439H32.2016H32.1592H32.1169H32.0746H32.0323H31.9899H31.9476H31.9053H31.8629H31.8206H31.7783H31.736H31.6936H31.6513H31.609H31.5667H31.5245H31.4822H31.4399H31.3977H31.3554H31.3132H31.271H31.2288H31.1867H31.1445H31.1024H31.0603H31.0182H30.9761H30.9341H30.8921H30.8501H30.8081H30.7662H30.7243H30.6824H30.6406H30.5988H30.557H30.5153H30.4736H30.4319H30.3903H30.3487H30.3072H30.2657H30.2242H30.1828H30.1414H30.1001H30.0588H30.0176H29.9764H29.9353H29.8942H29.8532H29.8122H29.7713H29.7304H29.6896H29.6489H29.6082H29.5675H29.527H29.4865H29.446H29.4056H29.3653H29.3251H29.2849H29.2448H29.2047H29.1647H29.1248H29.085H29.0452H29.0056H28.9659H28.9264H28.887H28.8476H28.8083H28.7691H28.7299H28.6909H28.6519H28.613H28.5742H28.5355H28.4969H28.4584H28.4199H28.3816H28.3433H28.3052H28.2671H28.2291H28.1913H28.1535H28.1158H28.0782H28.0407H28.0034H27.9661H27.9289H27.8919H27.8549H27.8181H27.7813H27.7447H27.7082H27.6718H27.6355H27.5993H27.5632H27.5273H27.4915H27.4558H27.4202H27.3847H27.3493H27.3141H27.279H27.244H27.2092H27.1744H27.1398H27.1054H27.071H27.0368H27.0027H26.9688H26.935H26.9013H26.8677H26.8343H26.8011H26.7679H26.735H26.7021H26.6694H26.6369H26.6044H26.5722H26.5401H26.5081H26.4763H26.4446H26.4131H26.3817H26.3505H26.3194H26.2885H26.2578H26.2272H26.1967H26.1665H26.1363H26.1064H26.0766H26.047H26.0175H25.9882H25.9591H25.9301H25.9014H25.8727H25.8443H25.816H25.7879H25.76H25.7322H25.7047H25.6773H25.6501H25.623H25.5962H25.5695H25.543H25.5167H25.4906H25.4646H25.4389H25.4133H25.3879H25.3628H25.3378H25.313H25.2884H25.264H25.2398H25.2158H25.1919H25.1683H25.1449H25.1217H25.0987H25.0759H25.0533H25.0309H25.0087H24.9867H24.9649H24.9433H24.922H24.9008H24.8799H24.8592H24.8387H24.8184H24.7983H24.7785H24.7588H24.7394H24.7202H24.7013H24.6825H24.664H24.6457H24.6276H24.6098H24.5922H24.5748H24.5577H24.5407H24.5241H24.5076H24.4914H24.4754H24.4597H24.4442H24.4289H24.4139H24.3991H24.3846H24.3703H24.3562H24.3424H24.3289H24.3156H24.3025H24.2897H24.2771H24.2648H24.2528H24.241H24.2294H24.2182H24.2071H24.1964H24.1858H24.1756H24.1656H24.1559H24.1464H24.1372H24.1283H24.1196H24.1112H24.1031H24.0953H24.0877H24.0804H24.0733H24.0666H24.0601H24.0539H24.048H24.0423H24.0369H24.0318H24.027H24.0225H24.0183H24.0143H24.0106H24.0073H24.0042H24.0014H23.9989H23.9966H23.9947H23.9931H23.9917H23.9907H23.9899H23.9895C23.9894 58.6286 23.9893 58.6286 23.9893 59.0762C23.9893 59.1225 23.9893 59.1735 23.9893 59.2299V58.6286H23.3881V59.2299V67.5822V68.1835H23.9893H39.5257H40.127V67.5822V59.2299Z" stroke="#1BBDE3" stroke-opacity="0.7" stroke-width="1.20255"/>
</svg>
