<svg width="484" height="174" viewBox="0 0 484 174" fill="none" xmlns="http://www.w3.org/2000/svg">
<path d="M174.282 0.00182465C145.635 -0.0745494 113.369 2.2408 75.8176 8.05126C71.3852 8.67431 28.6822 33.1512 17.1694 50.0449C5.65661 66.9397 1.71833 99.0982 1.71833 99.0982C-1.38989 112.268 0.498244 134.035 1.36531 136.152C2.53539 140.734 9.14585 144.58 20.4997 147.361C21.8237 126.2 39.275 109.711 60.3765 109.685C82.47 109.685 100.379 127.683 100.379 149.882C100.365 151.655 100.234 153.424 99.9873 155.18C100.577 155.188 101.247 155.204 101.807 155.21L341.09 157.21C340.637 154.794 340.405 152.341 340.397 149.882C340.397 127.683 358.308 109.685 380.4 109.685C402.494 109.685 420.403 127.683 420.403 149.882C420.403 152.563 420.137 155.238 419.607 157.865L481.797 158.385C483.115 135.46 488.658 111.384 474.773 91.3362C469.316 83.4576 442.84 69.1897 375.736 58.5154C341.065 41.0197 307.228 21.1826 270.378 9.81488C241.966 4.15215 211.114 0.0993021 174.282 0.00182465ZM157.083 12.0448C163.082 12.089 168.584 12.3362 173.098 12.8588L180.386 61.4488C138.953 56.3307 96.733 51.7382 74.4145 33.8134C74.7645 28.2864 82.375 20.2852 90.9216 17.2262C95.762 15.4937 131.091 11.8539 157.084 12.0448H157.083ZM191.711 12.3945C216.725 12.6598 253.747 15.0978 279.219 26.4031C291.422 32.0809 314.395 45.37 329.759 57.1035L323.409 67.6903C281.7 65.8011 226.114 63.4667 203.301 60.877L191.711 12.3945ZM60.3765 125.764C54.0108 125.764 47.9059 128.305 43.4047 132.828C38.9035 137.351 36.3748 143.485 36.3748 149.882C36.3748 156.278 38.9035 162.413 43.4047 166.936C47.9059 171.459 54.0108 174 60.3765 174C66.7421 174 72.847 171.459 77.3482 166.936C81.8494 162.413 84.3782 156.278 84.3782 149.882C84.3782 143.485 81.8494 137.351 77.3482 132.828C72.847 128.305 66.7421 125.764 60.3765 125.764ZM380.399 125.764C374.033 125.764 367.928 128.305 363.427 132.828C358.926 137.351 356.397 143.485 356.397 149.882C356.397 156.278 358.926 162.413 363.427 166.936C367.928 171.459 374.033 174 380.399 174C386.765 174 392.87 171.459 397.371 166.936C401.872 162.413 404.401 156.278 404.401 149.882C404.401 143.485 401.872 137.351 397.371 132.828C392.87 128.305 386.765 125.764 380.399 125.764Z" fill="#1BBDE3" fill-opacity="0.1"/>
<path d="M101.818 154.21C101.817 154.21 101.817 154.21 101.816 154.21C101.592 154.208 101.358 154.204 101.12 154.199C101.281 152.769 101.368 151.33 101.379 149.89V149.882C101.379 127.135 83.0269 108.685 60.3765 108.685H60.3752C39.1417 108.711 21.5205 124.996 19.5936 146.101C14.5108 144.786 10.507 143.258 7.61838 141.569C4.49708 139.743 2.82265 137.817 2.33422 135.904L2.31702 135.837L2.29066 135.773C2.23398 135.634 2.1234 135.179 1.99208 134.338C1.86737 133.539 1.73679 132.483 1.61277 131.223C1.36489 128.704 1.1461 125.398 1.05075 121.744C0.859479 114.415 1.16772 105.784 2.69159 99.3279L2.70423 99.2743L2.71091 99.2197L2.41765 99.1838C2.71091 99.2197 2.71092 99.2197 2.71093 99.2196L2.71103 99.2188L2.7115 99.215L2.71353 99.1986L2.72199 99.1315C2.72959 99.0717 2.74115 98.982 2.75676 98.8638C2.78798 98.6274 2.83544 98.2772 2.90001 97.8246C3.02917 96.9194 3.22675 95.6053 3.49984 93.9746C4.04614 90.7125 4.8939 86.1878 6.09923 81.1393C8.51785 71.009 12.3477 58.8965 17.9958 50.6081C20.7928 46.5038 25.5323 41.8785 31.202 37.2164C36.8577 32.5658 43.3822 27.9244 49.6971 23.7828C56.0109 19.6419 62.1021 16.0093 66.8852 13.3759C69.2776 12.0588 71.3347 10.9961 72.924 10.246C73.7193 9.87063 74.3881 9.578 74.9177 9.37183C75.4696 9.157 75.8034 9.06308 75.9568 9.04152L75.9568 9.04162L101.807 155.21L101.818 154.21ZM101.818 154.21L339.902 156.2M101.818 154.21L339.902 156.2M339.902 156.2C339.573 154.112 339.404 152.001 339.397 149.885V149.882C339.397 127.135 357.752 108.685 380.4 108.685C403.05 108.685 421.403 127.135 421.403 149.882C421.403 152.226 421.204 154.566 420.809 156.875" stroke="url(#paint0_linear_1_5623)" stroke-opacity="0.8" stroke-width="2"/>
<defs>
<linearGradient id="paint0_linear_1_5623" x1="65.5" y1="32" x2="442" y2="157" gradientUnits="userSpaceOnUse">
<stop stop-color="#1BBDE3"/>
<stop offset="1" stop-color="#1BBDE3" stop-opacity="0.4"/>
</linearGradient>
</defs>
</svg>
