<svg width="70" height="148" viewBox="0 0 70 148" fill="none" xmlns="http://www.w3.org/2000/svg">
    <path d="M4.68537 19.2405C4.68537 19.2405 11.9018 115.902 12.0241 116.324V140.334C12.026 142.044 12.7062 143.683 13.9152 144.892C15.1243 146.101 16.7636 146.781 18.4734 146.783H51.6412C53.3511 146.781 54.9904 146.101 56.1994 144.892C57.4085 143.683 58.0886 142.044 58.0906 140.334V116.324C58.2147 115.902 65.3885 19.5462 65.3885 19.5462C65.5571 18.7402 67.9193 9.22825 67.9193 9.22825C68.4048 7.29214 67.9767 5.27266 66.7465 3.69598C65.5163 2.11929 63.6636 1.217 61.6626 1.217H8.452C7.47151 1.21428 6.50342 1.43632 5.62211 1.86605C4.74081 2.29579 3.9697 2.92178 3.36804 3.69598C2.76309 4.46661 2.34284 5.36566 2.13953 6.32405C1.93623 7.28244 1.95532 8.27466 2.1953 9.22453C2.1953 9.22453 4.55753 18.7402 4.68537 19.2405ZM41.5066 141.254H28.6079V136.649C28.6079 136.649 29.0211 135.728 29.5288 135.728H40.584C41.0917 135.728 41.5049 136.649 41.5049 136.649L41.5066 141.254ZM52.562 140.334C52.5615 140.578 52.4643 140.812 52.2917 140.984C52.1192 141.157 51.8852 141.254 51.6412 141.254H46.85C46.9538 140.964 47.0352 136.649 47.0352 136.649C47.0333 134.939 46.3532 133.299 45.1441 132.09C43.935 130.881 42.2958 130.201 40.5859 130.199H29.5306C27.8207 130.201 26.1814 130.881 24.9723 132.09C23.7633 133.299 23.0832 134.939 23.0812 136.649C23.0812 136.649 23.1646 140.964 23.2683 141.254H18.4753C18.2312 141.254 17.9973 141.157 17.8247 140.984C17.6521 140.812 17.555 140.578 17.5545 140.334V120.987H52.562V140.334ZM52.8232 114.603C52.8055 114.835 52.7012 115.052 52.5309 115.21C52.3607 115.369 52.1369 115.458 51.9042 115.459H18.2104C17.9777 115.458 17.754 115.369 17.5837 115.21C17.4134 115.052 17.3091 114.835 17.2914 114.603C17.2914 114.603 10.1769 18.5957 9.99159 17.8009H60.1211C59.9359 18.5957 52.8232 114.603 52.8232 114.603ZM7.72572 7.09758C7.81172 6.98719 7.92193 6.89805 8.04785 6.83702C8.17378 6.77598 8.31206 6.74471 8.452 6.74559H61.6607C61.8014 6.74396 61.9405 6.77491 62.0672 6.83601C62.1939 6.8971 62.3048 6.98668 62.3911 7.09775C62.4774 7.20882 62.5368 7.33835 62.5647 7.47622C62.5927 7.61408 62.5882 7.75653 62.5519 7.89242L61.4681 12.2723H8.64464L7.55893 7.88873C7.52372 7.75294 7.52051 7.61082 7.54944 7.47356C7.57837 7.3363 7.63869 7.2076 7.72572 7.09758Z" fill="#1BBDE3" fill-opacity="0.2"/>
    <path d="M32.0689 43.6262C27.9484 49.4715 23.0424 57.392 23.0609 61.9127C23.0831 67.2319 27.1129 71.9212 32.4395 72.8179C33.4678 72.9902 34.4978 73.081 35.502 73.081C42.774 73.081 47.8894 68.5492 47.945 62.0683C47.9765 58.4629 44.9454 52.2618 38.937 43.6429C37.3677 41.3881 33.6381 41.3881 32.0689 43.6262ZM35.5001 67.5506C34.7818 67.5489 34.0648 67.4875 33.3565 67.3671C30.6478 66.9095 28.5987 64.5529 28.5876 61.8905C28.582 60.173 30.7238 55.3911 35.4909 48.3914C40.284 55.4948 42.4313 60.3138 42.4165 62.0165C42.3831 66.0962 38.8221 67.5506 35.5001 67.5506Z" fill="#1BBDE3" fill-opacity="0.2"/>
    <path d="M65.985 19.632L65.9829 19.6606L65.9675 19.8672L65.9075 20.673L65.6796 23.7319C65.4832 26.3675 65.2025 30.133 64.8652 34.653C64.1908 43.693 63.2901 55.7507 62.3857 67.8216C61.4812 79.8925 60.5728 91.9767 59.8828 101.07C59.5378 105.616 59.2473 109.415 59.0392 112.091C58.9352 113.429 58.8517 114.486 58.7923 115.216C58.7626 115.581 58.7388 115.865 58.7213 116.062C58.7127 116.16 58.7054 116.239 58.6997 116.295C58.697 116.322 58.6943 116.347 58.6918 116.368V140.334V140.334C58.6897 142.203 57.9463 143.995 56.6246 145.317C55.3029 146.639 53.511 147.382 51.6419 147.384H51.6412H18.4734H18.4727C16.6036 147.382 14.8117 146.639 13.4901 145.317C12.1684 143.995 11.4249 142.203 11.4228 140.334V140.334V116.367C11.4203 116.347 11.4177 116.322 11.4149 116.295C11.4092 116.238 11.402 116.16 11.3933 116.061C11.3759 115.864 11.352 115.579 11.3222 115.213C11.2625 114.481 11.1787 113.42 11.0742 112.078C10.8651 109.394 10.5731 105.583 10.2263 101.022C9.5325 91.9004 8.61897 79.7779 7.70927 67.6688C6.79957 55.5597 5.89369 43.4638 5.21524 34.3952C4.87602 29.8609 4.59365 26.0834 4.39608 23.4395L4.16684 20.3709L4.10647 19.5625L4.09099 19.3553L4.08966 19.3374C3.97821 18.8952 3.38568 16.5117 2.80886 14.1899L1.98284 10.8641L1.71349 9.77927L1.6383 9.4764L1.61852 9.39672L1.61345 9.3763L1.61234 9.37182L1.61217 9.37114L1.61185 9.36984L1.61177 9.36951C1.61175 9.36944 1.61174 9.3694 2.1953 9.22453C1.95532 8.27466 1.93623 7.28244 2.13953 6.32405C2.34284 5.36566 2.76309 4.46661 3.36804 3.69598L65.985 19.632ZM65.985 19.632C66.0932 19.1382 66.7038 16.6487 67.3009 14.229C67.6067 12.9899 67.9072 11.7759 68.1312 10.8717L68.4011 9.78333L68.4763 9.48013L68.4961 9.40045L68.5012 9.38006L68.5025 9.3749L68.5026 9.37447M65.985 19.632L68.5026 9.37447M8.45281 0.61573C7.38073 0.612881 6.32222 0.855727 5.35858 1.3256C4.39514 1.79539 3.55209 2.47964 2.89418 3.32586L61.6626 1.217C63.6636 1.217 65.5163 2.11929 66.7465 3.69598C67.9767 5.27266 68.4048 7.29214 67.9193 9.22825C68.5029 9.37317 68.5029 9.37321 68.5029 9.37328L68.5028 9.37341M8.45281 0.61573C8.4531 0.615731 8.45338 0.615732 8.45367 0.615733L8.452 1.217V0.61573H8.45281ZM8.45281 0.61573H61.6626C63.8483 0.61573 65.8761 1.603 67.2206 3.3261C68.5643 5.04822 69.033 7.25759 68.5028 9.37341M68.5028 9.37341L68.5028 9.3736L68.5026 9.37447M68.5028 9.37341C68.5027 9.37377 68.5027 9.37412 68.5026 9.37447M22.5948 140.442C22.5985 140.515 22.6022 140.586 22.6061 140.653H18.4765C18.3915 140.653 18.31 140.619 18.2499 140.559C18.19 140.499 18.1561 140.418 18.1558 140.333C18.1558 140.333 18.1558 140.333 18.1558 140.332L18.1558 121.589H51.9607V140.332C51.9605 140.417 51.9267 140.499 51.8666 140.559C51.8065 140.619 51.725 140.653 51.64 140.653H47.512C47.5159 140.586 47.5196 140.515 47.5232 140.442C47.5458 139.991 47.5658 139.419 47.5825 138.86C47.5993 138.301 47.6127 137.751 47.622 137.341C47.6242 137.242 47.6262 137.15 47.628 137.069C47.6298 136.983 47.6314 136.908 47.6327 136.847L47.6354 136.709L47.6361 136.673L47.6363 136.663L47.6364 136.661L47.6364 136.66L47.6364 136.66L47.0352 136.649L47.6365 136.66L47.6365 136.648C47.6344 134.779 46.8909 132.987 45.5693 131.665C44.2476 130.343 42.4557 129.6 40.5866 129.598H40.5859H29.5306H29.5299C27.6608 129.6 25.8688 130.343 24.5472 131.665C23.2255 132.987 22.4821 134.779 22.4798 136.648L22.4801 136.66L22.4801 136.66L22.4801 136.661L22.4801 136.663L22.4803 136.673L22.481 136.709L22.4839 136.847C22.4863 136.966 22.49 137.136 22.4947 137.341C22.5042 137.751 22.5179 138.301 22.5349 138.861C22.5518 139.419 22.5721 139.991 22.5948 140.442ZM17.9935 114.77C17.9337 114.715 17.8971 114.638 17.8909 114.557L17.8907 114.554L17.8897 114.541L17.8859 114.489L17.8706 114.283L17.8111 113.48L17.5849 110.431C17.39 107.805 17.1114 104.051 16.7765 99.5447C16.1066 90.5316 15.2115 78.5057 14.3106 66.4551C13.4097 54.4044 12.503 42.3287 11.8099 33.2159C11.4634 28.6595 11.1702 24.8435 10.9579 22.1414C10.8517 20.7905 10.7657 19.7173 10.7033 18.969C10.6853 18.753 10.6692 18.5636 10.6551 18.4021H59.4576C59.4435 18.5636 59.4275 18.753 59.4095 18.969C59.3471 19.7173 59.2611 20.7906 59.1549 22.1414C58.9426 24.8435 58.6496 28.6596 58.3031 33.2159C57.6102 42.3287 56.7037 54.4044 55.8031 66.4551C54.9024 78.5058 54.0075 90.5316 53.3378 99.5447C53.0029 104.051 52.7244 107.805 52.5295 110.431L52.3035 113.48L52.244 114.283L52.2287 114.489L52.2248 114.541L52.2239 114.554L52.2236 114.557C52.2174 114.639 52.1808 114.715 52.1211 114.77C52.0617 114.826 51.9836 114.857 51.9023 114.857C51.9019 114.857 51.9015 114.857 51.9012 114.857H18.2134C18.2131 114.857 18.2127 114.857 18.2123 114.857C18.131 114.857 18.053 114.826 17.9935 114.77ZM8.1973 7.4706L8.19731 7.47061L8.20003 7.46712C8.22941 7.42941 8.26706 7.39895 8.31011 7.37809C8.3531 7.35725 8.40036 7.34655 8.44822 7.34685V7.34686H8.452L61.6607 7.3469L61.6677 7.34682C61.7156 7.34627 61.7629 7.35681 61.8061 7.3776C61.8493 7.39844 61.887 7.42895 61.9163 7.46667L62.3911 7.09775L61.9163 7.46668C61.9457 7.50449 61.9659 7.54858 61.9754 7.59552C61.9849 7.64229 61.9834 7.69078 61.971 7.73718L61.9709 7.73715L61.9682 7.74799L60.9975 11.671H9.11516L8.14257 7.74417L8.14261 7.74417L8.14095 7.73778C8.1291 7.69209 8.12798 7.64409 8.13778 7.59757C8.14757 7.55115 8.16795 7.5077 8.1973 7.4706ZM32.3397 73.4109L32.3401 73.4109L47.945 62.0683L48.5463 62.0736C48.5463 62.0735 48.5463 62.0735 48.5463 62.0735C48.5633 60.1264 47.7613 57.5709 46.2461 54.4716C44.7226 51.3552 42.4441 47.6223 39.4305 43.2994C38.5141 41.9827 36.9881 41.3507 35.5039 41.3484C34.0201 41.3461 32.494 41.9728 31.5768 43.2806C29.51 46.2127 27.2376 49.677 25.4817 52.9842C23.7419 56.2611 22.4497 59.49 22.4596 61.9151C22.4831 67.5333 26.7308 72.4666 32.3397 73.4109ZM33.4573 66.7744L33.4567 66.7743C31.0235 66.3632 29.1988 64.2451 29.1889 61.8881C29.1879 61.5609 29.2941 61.0168 29.5622 60.2363C29.8259 59.4686 30.2306 58.5158 30.7884 57.3884C31.8238 55.2958 33.3735 52.6281 35.4887 49.4691C37.6185 52.6782 39.1773 55.3808 40.2171 57.4946C40.7768 58.6324 41.1823 59.5918 41.4457 60.3626C41.7137 61.1471 41.818 61.6895 41.8152 62.0112V62.0115C41.8002 63.8455 41.0074 65.0465 39.8579 65.8132C38.679 66.5996 37.0881 66.9491 35.5015 66.9493C34.8165 66.9477 34.1327 66.8892 33.4573 66.7744ZM40.9051 140.653H29.2092V136.791C29.2092 136.791 29.2093 136.791 29.2093 136.791C29.2478 136.719 29.3015 136.628 29.3649 136.541C29.4307 136.45 29.4923 136.384 29.5417 136.345C29.5507 136.338 29.558 136.333 29.5635 136.329H40.5492C40.5548 136.333 40.562 136.338 40.5711 136.345C40.6205 136.384 40.6821 136.45 40.7479 136.541C40.8112 136.628 40.8649 136.719 40.9034 136.791C40.9035 136.791 40.9036 136.791 40.9036 136.791L40.9051 140.653Z" stroke="#1BBDE3" stroke-opacity="0.7" stroke-width="1.20255"/>
</svg>