<svg width="77" height="148" viewBox="0 0 77 148" fill="none" xmlns="http://www.w3.org/2000/svg">
    <path d="M75.7368 1.10393C75.4265 0.756698 75.0465 0.478882 74.6215 0.288649C74.1965 0.098417 73.7361 5.62687e-05 73.2704 1.80313e-06H4.07211C3.60631 -0.000485202 3.14561 0.0976844 2.72049 0.288048C2.29537 0.478412 1.9154 0.756653 1.60556 1.10446C1.29573 1.45226 1.06316 1.86175 0.92299 2.30595C0.78282 2.75015 0.738303 3.21901 0.792397 3.68165L13.4224 112.68V144.698C13.4224 145.573 13.7704 146.413 14.3897 147.033C15.009 147.652 15.8489 148 16.7248 148H60.6177C61.4936 148 62.3335 147.652 62.9528 147.033C63.5721 146.413 63.92 145.573 63.92 144.698V112.68L76.5501 3.69108C76.6055 3.22684 76.5617 2.75613 76.4215 2.31011C76.2812 1.86409 76.0479 1.45296 75.7368 1.10393ZM69.5643 6.6047L68.8434 12.815H8.49909L7.77823 6.6047H69.5643ZM50.7974 131.026C50.0754 128.363 48.4966 126.011 46.3049 124.335C44.1133 122.658 41.4307 121.75 38.6713 121.75C35.9119 121.75 33.2292 122.658 31.0375 124.335C28.8458 126.011 27.2671 128.363 26.545 131.026H20.0271V115.784H57.3154V131.026H50.7974ZM43.6436 131.026H33.6989C34.242 130.204 34.9805 129.529 35.8482 129.062C36.716 128.596 37.6859 128.351 38.6713 128.351C39.6566 128.351 40.6265 128.596 41.4943 129.062C42.3621 129.529 43.1006 130.204 43.6436 131.026ZM57.6758 109.179H19.6667L9.26336 19.4197H68.0792L57.6758 109.179ZM20.0271 141.386V137.631H57.3154V141.386H20.0271Z" fill="#1BBDE3" fill-opacity="0.2"/>
    <path d="M52.8702 47.7878L40.3232 40.5434C39.8213 40.2532 39.2518 40.1004 38.672 40.1004C38.0922 40.1004 37.5227 40.2532 37.0208 40.5434L24.4738 47.7878C23.9719 48.0775 23.5551 48.4943 23.2653 48.9961C22.9754 49.4979 22.8228 50.0672 22.8226 50.6467V65.1355C22.8228 65.715 22.9754 66.2843 23.2653 66.7861C23.5551 67.2879 23.9719 67.7046 24.4738 67.9944L37.0208 75.2388C37.5226 75.5294 38.0922 75.6824 38.672 75.6824C39.2518 75.6824 39.8214 75.5294 40.3232 75.2388L52.8702 67.9944C53.3721 67.7046 53.7889 67.2879 54.0787 66.7861C54.3685 66.2843 54.5212 65.715 54.5214 65.1355V50.6467C54.5212 50.0672 54.3685 49.4979 54.0787 48.9961C53.7889 48.4943 53.3721 48.0775 52.8702 47.7878ZM47.9186 63.2277L38.672 68.5662L29.4254 63.2277V52.5545L38.672 47.216L47.9186 52.5545V63.2277Z" fill="#1BBDE3" fill-opacity="0.2"/>
    <path d="M40.0225 41.0641L40.0222 41.0639C39.6118 40.8266 39.1461 40.7016 38.672 40.7016C38.1979 40.7016 37.7322 40.8266 37.3218 41.0639L37.3215 41.0641L24.7744 48.3085C24.3639 48.5455 24.023 48.8864 23.7859 49.2968C23.5489 49.7072 23.424 50.1727 23.4239 50.6467L40.0225 41.0641ZM40.0225 41.0641L52.5696 48.3085M40.0225 41.0641L52.5696 48.3085M24.4738 67.9944L24.7744 67.4737L37.3215 74.7181L37.3221 74.7185C37.7323 74.956 38.198 75.0811 38.672 75.0811C39.146 75.0811 39.6117 74.956 40.0219 74.7185L40.0225 74.7181L52.5696 67.4737L52.8702 67.9944L52.5696 67.4737C52.9801 67.2367 53.321 66.8958 53.558 66.4854C53.7951 66.075 53.9199 65.6094 53.9201 65.1355L24.4738 67.9944ZM24.4738 67.9944L24.7744 67.4737C24.3639 67.2367 24.023 66.8958 23.7859 66.4854C23.5489 66.075 23.424 65.6094 23.4239 65.1355C23.4239 65.1354 23.4239 65.1354 23.4239 65.1353M24.4738 67.9944L23.4239 65.1353M52.5696 48.3085C52.9801 48.5455 53.321 48.8864 53.558 49.2968C53.7951 49.7072 53.9199 50.1727 53.9201 50.6467C53.9201 50.6467 53.9201 50.6468 53.9201 50.6469M52.5696 48.3085L53.9201 50.6469M23.4239 65.1353V50.6469V65.1353ZM53.9201 50.6469V65.1353V50.6469ZM4.07148 0.601276H4.07211H73.2703C73.6514 0.601321 74.0281 0.681805 74.3758 0.837458C74.7234 0.993004 75.0341 1.22012 75.2879 1.50399C75.5423 1.78943 75.7332 2.12567 75.8479 2.49043C75.9625 2.85521 75.9984 3.24017 75.9531 3.61982L75.9529 3.62187L63.3228 112.611L63.3188 112.645V112.68V144.698C63.3188 145.414 63.0342 146.101 62.5276 146.608C62.0211 147.114 61.3341 147.399 60.6177 147.399H16.7248C16.0084 147.399 15.3215 147.114 14.8149 146.608C14.3083 146.101 14.0237 145.414 14.0237 144.698V112.68V112.645L14.0197 112.611L1.38968 3.61244L1.3896 3.61182C1.34537 3.23352 1.38177 2.85013 1.49639 2.48689C1.61103 2.12359 1.80122 1.78876 2.05453 1.50441C2.30789 1.22 2.6186 0.992479 2.96622 0.836816C3.31383 0.681159 3.69057 0.600878 4.07148 0.601276ZM70.1616 6.67403L70.2394 6.00343H69.5643H7.77823H7.10312L7.18096 6.67403L7.90183 12.8843L7.96357 13.4163H8.49909H68.8434H69.3789L69.4407 12.8843L70.1616 6.67403ZM50.2171 131.183L50.3375 131.627H50.7974H57.3154H57.9166V131.026V115.784V115.183H57.3154H20.0271H19.4259V115.784V131.026V131.627H20.0271H26.545H27.0049L27.1253 131.183C27.8128 128.647 29.316 126.409 31.4028 124.812C33.4896 123.216 36.0439 122.351 38.6713 122.351C41.2986 122.351 43.8528 123.216 45.9396 124.812C48.0264 126.409 49.5296 128.647 50.2171 131.183ZM43.6436 131.627H44.7615L44.1453 130.695C43.5475 129.789 42.7345 129.047 41.7791 128.533C40.8238 128.019 39.756 127.75 38.6713 127.75C37.5865 127.75 36.5187 128.019 35.5634 128.533C34.6081 129.047 33.7951 129.789 33.1972 130.695L32.5811 131.627H33.6989H43.6436ZM57.6758 109.781H58.2114L58.2731 109.249L68.6764 19.4889L68.7542 18.8184H68.0792H9.26336H8.58838L8.66609 19.4889L19.0694 109.249L19.1311 109.781H19.6667H57.6758ZM19.4259 141.386V141.987H20.0271H57.3154H57.9166V141.386V137.631V137.029H57.3154H20.0271H19.4259V137.631V141.386ZM48.2192 63.7484L48.5198 63.5748V63.2277V52.5545V52.2073L48.2192 52.0338L38.9726 46.6953L38.672 46.5217L38.3714 46.6953L29.1248 52.0338L28.8241 52.2073V52.5545V63.2277V63.5748L29.1248 63.7484L38.3714 69.0869L38.672 69.2605L38.9726 69.0869L48.2192 63.7484Z" stroke="#1BBDE3" stroke-opacity="0.7" stroke-width="1.20255"/>
</svg>
