<svg width="128" height="144" viewBox="0 0 128 144" fill="none" xmlns="http://www.w3.org/2000/svg">
    <path d="M111.886 66.3635V56.8289H112.65C113.254 56.8289 113.834 56.5887 114.262 56.1611C114.69 55.7335 114.93 55.1535 114.93 54.5488C114.93 53.944 114.69 53.3641 114.262 52.9365C113.834 52.5089 113.254 52.2686 112.65 52.2686H111.886V44.9218C111.886 42.1014 110.135 39.6836 107.664 38.694C107.785 37.4557 107.94 35.7116 108.087 33.5771C109.069 19.3661 100.958 6.08879 87.9058 0.538053C87.5346 0.380268 87.3294 0.300616 87.3294 0.300616C85.8251 -0.283705 84.2206 0.833557 84.2206 2.42478C84.2206 15.769 55.7845 22.4662 39.8656 22.4662C30.8512 22.4662 26.0542 27.3548 23.6175 31.456C22.0211 34.1426 21.2325 36.8231 20.8601 38.5079C18.1157 39.3485 16.114 41.9056 16.114 44.9215V52.2683H15.3506C14.7459 52.2683 14.166 52.5086 13.7384 52.9362C13.3108 53.3638 13.0706 53.9437 13.0706 54.5485C13.0706 55.1532 13.3108 55.7332 13.7384 56.1608C14.166 56.5884 14.7459 56.8286 15.3506 56.8286H16.114V66.3632C7.63045 66.9302 0.900421 74.0083 0.900421 82.6332V127.546C0.900421 136.54 8.21741 143.857 17.2111 143.857H110.789C119.783 143.857 127.1 136.54 127.1 127.546V82.6335C127.1 74.0086 120.37 66.9302 111.886 66.3635ZM27.5381 33.7856C30.2028 29.3008 34.3505 27.0267 39.866 27.0267C55.4234 27.0267 84.5798 20.9497 88.3675 5.80758C98.3049 11.0947 104.328 21.8284 103.537 33.263C103.424 34.9156 103.287 36.5664 103.128 38.2152H25.6432C26.0107 36.952 26.6029 35.3598 27.5381 33.7856ZM64.3813 52.2686H20.6745V44.9218C20.6752 44.3526 20.9016 43.807 21.304 43.4046C21.7065 43.0021 22.2521 42.7758 22.8212 42.7751H105.18C105.749 42.7758 106.294 43.0021 106.697 43.4046C107.099 43.807 107.326 44.3526 107.326 44.9218V52.2686H86.5012C85.2417 52.2686 84.2211 53.2895 84.2211 54.5488C84.2211 55.808 85.2417 56.8289 86.5012 56.8289H107.326V66.3224H20.6745V56.8289H64.3815C64.9863 56.8289 65.5662 56.5886 65.9938 56.1609C66.4214 55.7333 66.6616 55.1533 66.6616 54.5486C66.6615 53.9439 66.4212 53.3639 65.9935 52.9364C65.5659 52.5088 64.986 52.2686 64.3813 52.2686ZM122.54 127.546C122.54 134.025 117.268 139.297 110.789 139.297H17.2115C10.7323 139.297 5.46092 134.025 5.46092 127.546V82.6335C5.46092 76.1543 10.7323 70.8827 17.2115 70.8827H110.789C117.268 70.8827 122.54 76.154 122.54 82.6335V127.546Z" fill="#1BBDE3" fill-opacity="0.2"/>
    <path d="M100.919 82.1545H27.0821C21.0343 82.1545 16.1139 87.0747 16.1139 93.1225V117.057C16.1139 123.105 21.0343 128.025 27.0821 128.025H100.918C106.966 128.025 111.886 123.105 111.886 117.057V93.1225C111.886 87.0747 106.966 82.1545 100.919 82.1545ZM107.326 117.057C107.326 120.591 104.452 123.465 100.918 123.465H27.0821C23.5488 123.465 20.6742 120.591 20.6742 117.057V93.1225C20.6742 89.5892 23.5488 86.7147 27.0821 86.7147H100.918C104.452 86.7147 107.326 89.5892 107.326 93.1225V117.057Z" fill="#1BBDE3" fill-opacity="0.2"/>
    <path d="M111.285 66.3635V66.9259L111.846 66.9634C120.017 67.5092 126.499 74.3277 126.498 82.6335V127.546C126.498 136.208 119.451 143.255 110.789 143.255H17.2111C8.54949 143.255 1.5017 136.208 1.5017 127.546V82.6332C1.5017 74.3274 7.98376 67.5092 16.1541 66.9631L16.7153 66.9256V66.3632V56.8286V56.2273H16.114H15.3506C14.9054 56.2273 14.4785 56.0505 14.1636 55.7356C13.8487 55.4207 13.6718 54.9937 13.6718 54.5485C13.6718 54.1032 13.8487 53.6762 14.1636 53.3613L13.7384 52.9362L14.1636 53.3613C14.4785 53.0465 14.9054 52.8696 15.3506 52.8696H16.114H16.7153V52.2683V44.9215C16.7153 42.1779 18.5367 39.8484 21.0362 39.0828L21.3715 38.9801L21.4472 38.6377C21.811 36.9917 22.5811 34.3772 24.1344 31.7631L24.1344 31.7631C26.4954 27.7892 31.1204 23.0675 39.8656 23.0675C47.8899 23.0675 59.0494 21.3826 68.22 18.014C72.8043 16.33 76.9301 14.2114 79.9206 11.6419C82.9137 9.07004 84.8218 5.997 84.8218 2.42478C84.8218 1.25313 86.0045 0.431038 87.1117 0.861091L87.1117 0.861126L87.1119 0.861167L87.1119 0.861202L87.1132 0.861701L87.1193 0.864094L87.1456 0.874446C87.1692 0.883818 87.205 0.898127 87.2524 0.917348C87.3472 0.955785 87.4882 1.01386 87.6705 1.09137C100.486 6.54123 108.451 19.5789 107.487 33.5356C107.34 35.6638 107.186 37.4022 107.065 38.6355L107.022 39.0845L107.44 39.2522C109.692 40.1539 111.285 42.3565 111.285 44.9218V52.2686V52.8699H111.886H112.65C113.095 52.8699 113.522 53.0468 113.837 53.3616C114.152 53.6765 114.329 54.1035 114.329 54.5488C114.329 54.994 114.152 55.421 113.837 55.7359C113.522 56.0508 113.095 56.2276 112.65 56.2276H111.886H111.285V56.8289V66.3635ZM27.0212 33.4785L27.0212 33.4785C26.0532 35.1079 25.4433 36.7501 25.0658 38.0472L24.842 38.8164H25.6432H103.128H103.674L103.726 38.273C103.886 36.6189 104.023 34.9625 104.137 33.3045C104.944 21.6329 98.7966 10.6753 88.6499 5.27676L87.9709 4.91546L87.7842 5.66167C86.8806 9.27411 84.4539 12.3875 81.0124 15.0346C77.5707 17.6818 73.1484 19.8349 68.331 21.5282C58.6942 24.9155 47.5839 26.4255 39.866 26.4255C34.1532 26.4255 29.8016 28.7989 27.0212 33.4785ZM64.3813 52.8699L64.3813 52.8699C64.8265 52.8699 65.2535 53.0467 65.5684 53.3616C65.8833 53.6764 66.0603 54.1035 66.0603 54.5487C66.0603 54.9939 65.8835 55.4209 65.5686 55.7358C65.2538 56.0507 64.8268 56.2276 64.3815 56.2276H20.6745H20.0733V56.8289V66.3224V66.9237H20.6745H107.326H107.928V66.3224V56.8289V56.2276H107.326H86.5012C85.5738 56.2276 84.8224 55.476 84.8224 54.5488C84.8224 53.6216 85.5738 52.8699 86.5012 52.8699H107.326H107.928V52.2686V44.9218V44.9211C107.927 44.1927 107.637 43.4944 107.122 42.9794C106.607 42.4644 105.909 42.1747 105.18 42.1738H105.18H22.8212L22.8206 42.1738C22.0922 42.1747 21.3939 42.4644 20.8789 42.9794C20.3638 43.4944 20.0741 44.1927 20.0733 44.9211V44.9218V52.2686V52.8699H20.6745H64.3813ZM110.789 139.898C117.6 139.898 123.141 134.358 123.141 127.546V82.6335C123.141 75.822 117.6 70.2814 110.789 70.2814H17.2115C10.4002 70.2814 4.85965 75.8223 4.85965 82.6335V127.546C4.85965 134.358 10.4002 139.898 17.2115 139.898H110.789ZM27.0821 82.7557H100.919C106.634 82.7557 111.285 87.4068 111.285 93.1225V117.057C111.285 122.773 106.634 127.424 100.918 127.424H27.0821C21.3663 127.424 16.7152 122.773 16.7152 117.057V93.1225C16.7152 87.4068 21.3663 82.7557 27.0821 82.7557ZM100.918 124.066C104.784 124.066 107.927 120.923 107.927 117.057V93.1225C107.927 89.2571 104.784 86.1135 100.918 86.1135H27.0821C23.2167 86.1135 20.0729 89.2571 20.0729 93.1225V117.057C20.0729 120.923 23.2167 124.066 27.0821 124.066H100.918Z" stroke="#1BBDE3" stroke-opacity="0.7" stroke-width="1.20255"/>
</svg>
