<svg width="72" height="138" viewBox="0 0 72 138" fill="none" xmlns="http://www.w3.org/2000/svg">
    <path d="M54.0575 1.65845H19.4875C17.6618 1.66073 15.9114 2.38702 14.6204 3.67802C13.3295 4.96901 12.6032 6.71933 12.6009 8.54507V11.3366C12.6032 13.1623 13.3295 14.9127 14.6204 16.2036C15.9114 17.4946 17.6618 18.2209 19.4875 18.2232H24.4843V28.6662C22.2021 28.6961 20.0233 29.623 18.419 31.2464C16.8147 32.8699 15.9138 35.0594 15.9109 37.3418V43.4305H14.1825C10.8032 43.4335 7.56325 44.7778 5.17441 47.168C2.78556 49.5582 1.44313 52.7989 1.44199 56.1781V123.604C1.4458 126.981 2.78902 130.219 5.17695 132.607C7.56489 134.995 10.8025 136.338 14.1796 136.342H51.3624C54.7395 136.338 57.9771 134.995 60.3651 132.607C62.753 130.219 64.0962 126.981 64.1 123.604V56.1781C64.0962 52.8011 62.753 49.5635 60.3651 47.1755C57.9771 44.7876 54.7395 43.4444 51.3624 43.4406H49.6339V37.3476C49.6326 35.063 48.7313 32.8708 47.1253 31.246C45.5193 29.6211 43.3378 28.6943 41.0534 28.6662V18.2232H53.693C53.7885 18.8147 54.0914 19.3528 54.5474 19.7413C55.0035 20.1298 55.583 20.3433 56.1821 20.3435H67.7054C68.3739 20.3435 69.0151 20.0779 69.4878 19.6052C69.9605 19.1325 70.2261 18.4913 70.2261 17.8228C70.2215 13.5364 68.5165 9.42693 65.4851 6.3964C62.4538 3.36587 58.3439 1.66188 54.0575 1.65845ZM59.0586 56.1781V123.604C59.0563 125.644 58.2447 127.601 56.8019 129.043C55.3591 130.486 53.4029 131.298 51.3624 131.3H14.1796C12.1391 131.298 10.1829 130.486 8.74011 129.043C7.2973 127.601 6.48572 125.644 6.48344 123.604V56.1781C6.48572 54.1377 7.2973 52.1815 8.74011 50.7387C10.1829 49.2959 12.1391 48.4843 14.1796 48.482H51.3624C53.4029 48.4843 55.3591 49.2959 56.8019 50.7387C58.2447 52.1815 59.0563 54.1377 59.0586 56.1781ZM44.5853 37.3476V43.4362H20.9625V37.3476C20.964 36.3837 21.3472 35.4596 22.0282 34.7775C22.7093 34.0954 23.6328 33.7107 24.5967 33.7077H40.9439C41.9091 33.7088 42.8344 34.0926 43.517 34.775C44.1996 35.4573 44.5838 36.3825 44.5853 37.3476ZM36.0119 28.6662H29.5301V18.2232H36.0119V28.6662ZM57.9523 15.3021C57.5322 14.6525 56.9563 14.1183 56.2771 13.748C55.5978 13.3777 54.8368 13.183 54.0632 13.1818H19.4933C19.0041 13.181 18.5352 12.9864 18.1894 12.6405C17.8435 12.2946 17.6489 11.8257 17.6481 11.3366V8.54507C17.6489 8.05593 17.8435 7.58705 18.1894 7.24118C18.5352 6.89531 19.0041 6.70066 19.4933 6.6999H54.0632C56.5743 6.70321 59.0106 7.55456 60.9772 9.11593C62.9438 10.6773 64.3254 12.8571 64.898 15.3021H57.9523Z" fill="#1BBDE3" fill-opacity="0.2"/>
    <path d="M13.7376 69.1808V110.593C13.7376 111.261 14.0032 111.902 14.4759 112.375C14.9486 112.848 15.5898 113.113 16.2583 113.113H49.2856C49.9541 113.113 50.5953 112.848 51.068 112.375C51.5407 111.902 51.8063 111.261 51.8063 110.593V69.1808C51.8063 68.5123 51.5407 67.8712 51.068 67.3984C50.5953 66.9257 49.9541 66.6601 49.2856 66.6601H16.2583C15.5898 66.6601 14.9486 66.9257 14.4759 67.3984C14.0032 67.8712 13.7376 68.5123 13.7376 69.1808ZM18.779 71.7016H46.7649V108.072H18.779V71.7016Z" fill="#1BBDE3" fill-opacity="0.2"/>
    <path d="M64.1111 14.7008C63.4829 12.6886 62.2634 10.9048 60.6034 9.58684C58.743 8.10979 56.4382 7.30438 54.0628 7.30117C54.0627 7.30117 54.0625 7.30117 54.0624 7.30117L19.4937 7.30117M64.1111 14.7008L19.4933 6.6999M64.1111 14.7008H58.2668C57.8145 14.0906 57.2341 13.5849 56.5649 13.2201C55.7976 12.8018 54.938 12.5819 54.0642 12.5805H54.0632L19.4942 12.5805L19.4933 13.1818V12.5805H19.4937C19.1639 12.5798 18.8478 12.4485 18.6145 12.2153C18.3812 11.982 18.2499 11.6656 18.2494 11.3357M64.1111 14.7008L18.2494 11.3357M19.4937 7.30117H19.4933V6.6999M19.4937 7.30117C19.4938 7.30117 19.494 7.30117 19.4942 7.30117L19.4933 6.6999M19.4937 7.30117C19.1639 7.30183 18.8478 7.43313 18.6145 7.66634C18.3812 7.89969 18.2499 8.21602 18.2494 8.54601M19.4933 6.6999C19.0041 6.70066 18.5352 6.89531 18.1894 7.24118C17.8435 7.58705 17.6489 8.05593 17.6481 8.54507M18.2494 8.54601V8.54507H17.6481M18.2494 8.54601V11.3357M18.2494 8.54601L17.6481 8.54507M17.6481 8.54507L18.2494 11.3357M18.2494 11.3357L17.6481 11.3366H18.2494V11.3357ZM43.984 42.835L43.984 37.3486L43.984 37.3476M43.984 42.835L40.9439 33.7077C41.9091 33.7088 42.8344 34.0926 43.517 34.775C44.1996 35.4573 44.5838 36.3825 44.5853 37.3476H43.984M43.984 42.835H21.5638V37.3486C21.565 36.5436 21.885 35.772 22.4537 35.2023C23.0222 34.633 23.7929 34.3118 24.5974 34.309C24.5978 34.309 24.5982 34.309 24.5986 34.309H40.9432M43.984 42.835L40.9432 34.309M43.984 37.3476C43.9825 36.542 43.6617 35.7698 43.0919 35.2002C42.5221 34.6306 41.7496 34.3101 40.9439 34.309C40.9437 34.309 40.9435 34.309 40.9432 34.309M43.984 37.3476L40.9432 34.309M54.0579 1.05717H54.0575L19.4875 1.05717L19.4867 1.05717C17.5018 1.05966 15.5989 1.84928 14.1953 3.25285C12.7917 4.65643 12.0021 6.55937 11.9996 8.54432V8.54507V11.3366V11.3373C12.0021 13.3223 12.7917 15.2252 14.1953 16.6288C15.5989 18.0324 17.5018 18.822 19.4867 18.8245H19.4875H23.883V28.0918C21.6611 28.2632 19.5671 29.2293 17.9914 30.8238C16.276 32.5596 15.3127 34.9007 15.3097 37.3411V37.3418V42.8292L14.1825 42.8292L14.1819 42.8292C10.6433 42.8324 7.25061 44.24 4.74912 46.7429C2.24764 49.2458 0.841909 52.6393 0.840712 56.1779V56.1781L0.840711 123.604L0.840712 123.605C0.844704 127.141 2.25126 130.531 4.75179 133.032C7.25232 135.532 10.6426 136.939 14.1789 136.943H14.1796H51.3624H51.3631C54.8994 136.939 58.2897 135.532 60.7902 133.032C63.2908 130.531 64.6973 127.141 64.7013 123.605V123.604V56.1781L64.7013 56.1775C64.6973 52.6412 63.2908 49.2509 60.7902 46.7504C58.2897 44.2498 54.8994 42.8433 51.3631 42.8393H51.3624H50.2352V37.3476L50.2352 37.3473C50.2338 34.9045 49.2701 32.5606 47.553 30.8233C45.9755 29.2273 43.8789 28.2612 41.6547 28.0913V18.8245H53.225C53.4051 19.3554 53.7259 19.8314 54.1575 20.199C54.7223 20.6802 55.4399 20.9445 56.1818 20.9448H56.1821H67.7054C68.5334 20.9448 69.3275 20.6159 69.913 20.0304C70.4985 19.4449 70.8274 18.6508 70.8274 17.8228V17.8221C70.8226 13.3765 69.0542 9.11432 65.9102 5.97118C62.7662 2.82804 58.5036 1.06073 54.0579 1.05717ZM58.4573 56.1788V123.603C58.4552 125.484 57.707 127.288 56.3767 128.618C55.0465 129.948 53.243 130.697 51.3618 130.699H14.1802C12.299 130.697 10.4955 129.948 9.16527 128.618C7.83516 127.288 7.08693 125.485 7.08471 123.604C7.08471 123.604 7.08471 123.603 7.08471 123.603V56.1788C7.08471 56.1787 7.08471 56.1785 7.08471 56.1784C7.08693 54.2973 7.83516 52.494 9.16527 51.1639C10.4955 49.8336 12.299 49.0854 14.1802 49.0833H51.3618C53.243 49.0854 55.0465 49.8336 56.3767 51.1639C57.707 52.4941 58.4552 54.2976 58.4573 56.1788ZM35.4107 28.065H30.1313V18.8245H35.4107V28.065ZM13.1363 69.1808V110.593C13.1363 111.421 13.4652 112.215 14.0507 112.8C14.6362 113.386 15.4303 113.715 16.2583 113.715H49.2856C50.1136 113.715 50.9077 113.386 51.4932 112.8C52.0787 112.215 52.4076 111.421 52.4076 110.593V69.1808C52.4076 68.3528 52.0787 67.5587 51.4932 66.9733C50.9077 66.3878 50.1136 66.0588 49.2856 66.0588H16.2583C15.4303 66.0588 14.6362 66.3878 14.0507 66.9733C13.4652 67.5587 13.1363 68.3528 13.1363 69.1808ZM19.3803 72.3028H46.1636V107.471H19.3803V72.3028Z" stroke="#1BBDE3" stroke-opacity="0.7" stroke-width="1.20255"/>
</svg>
